<svg xmlns="http://www.w3.org/2000/svg" viewBox="0 0 65 40" overflow="visible" style="fill: #ffffff">
  <g fill="#ffffff">
    <path d="M 61.501 25.115 L 65 25.115 L 65 39.623 L 61.501 39.623 Z M 55.144 25.115 L 58.643 25.115 L 58.643 39.623 L 55.144 39.623 L 54.986 37.824 C 54.594 38.472 54.073 38.999 53.423 39.405 C 52.783 39.802 52.022 40 51.143 40 C 50.082 40 49.087 39.797 48.16 39.391 C 47.233 38.984 46.415 38.423 45.708 37.708 C 45.01 36.992 44.46 36.165 44.059 35.227 C 43.667 34.289 43.471 33.283 43.471 32.209 C 43.471 31.174 43.657 30.202 44.03 29.293 C 44.412 28.384 44.943 27.586 45.622 26.899 C 46.3 26.213 47.084 25.676 47.974 25.289 C 48.863 24.902 49.819 24.709 50.842 24.709 C 51.788 24.709 52.634 24.922 53.38 25.347 C 54.136 25.773 54.776 26.314 55.302 26.972 Z M 51.057 36.591 C 51.802 36.591 52.462 36.402 53.036 36.025 C 53.609 35.648 54.059 35.14 54.384 34.502 C 54.709 33.854 54.871 33.143 54.871 32.369 C 54.871 31.585 54.709 30.875 54.384 30.236 C 54.059 29.588 53.605 29.076 53.021 28.698 C 52.448 28.321 51.793 28.133 51.057 28.133 C 50.321 28.133 49.647 28.326 49.035 28.713 C 48.432 29.09 47.95 29.598 47.586 30.236 C 47.233 30.875 47.056 31.585 47.056 32.369 C 47.056 33.152 47.237 33.863 47.601 34.502 C 47.964 35.14 48.447 35.648 49.049 36.025 C 49.661 36.402 50.33 36.591 51.057 36.591 Z M 43.279 10.794 L 40.497 10.794 L 40.497 21.762 L 36.997 21.762 L 36.997 10.794 L 34.875 10.794 L 34.875 7.254 L 36.997 7.254 L 36.997 2.698 L 40.497 2.698 L 40.497 7.254 L 43.279 7.254 Z M 29.235 7.254 L 32.734 7.254 L 32.734 21.762 L 29.235 21.762 L 29.078 19.963 C 28.686 20.611 28.164 21.138 27.514 21.544 C 26.874 21.941 26.114 22.139 25.234 22.139 C 24.173 22.139 23.179 21.936 22.251 21.53 C 21.324 21.124 20.507 20.563 19.799 19.847 C 19.101 19.131 18.551 18.304 18.15 17.366 C 17.758 16.428 17.562 15.422 17.562 14.348 C 17.562 13.314 17.748 12.341 18.121 11.432 C 18.504 10.523 19.034 9.725 19.713 9.039 C 20.392 8.352 21.176 7.815 22.065 7.428 C 22.954 7.041 23.91 6.848 24.933 6.848 C 25.88 6.848 26.726 7.061 27.471 7.486 C 28.227 7.912 28.867 8.453 29.393 9.111 Z M 25.148 18.73 C 25.894 18.73 26.554 18.541 27.127 18.164 C 27.701 17.787 28.15 17.279 28.475 16.641 C 28.8 15.993 28.963 15.282 28.963 14.508 C 28.963 13.725 28.8 13.014 28.475 12.375 C 28.15 11.727 27.696 11.215 27.113 10.837 C 26.539 10.46 25.884 10.272 25.148 10.272 C 24.412 10.272 23.738 10.465 23.126 10.852 C 22.524 11.229 22.041 11.737 21.678 12.375 C 21.324 13.014 21.147 13.725 21.147 14.508 C 21.147 15.291 21.329 16.002 21.692 16.641 C 22.055 17.279 22.538 17.787 23.14 18.164 C 23.752 18.541 24.422 18.73 25.148 18.73 Z M 11.702 0 L 15.201 0 L 15.201 21.762 L 11.702 21.762 L 11.702 19.948 C 11.243 20.596 10.665 21.123 9.967 21.53 C 9.269 21.936 8.461 22.139 7.543 22.139 C 6.501 22.139 5.526 21.941 4.618 21.544 C 3.709 21.148 2.906 20.601 2.208 19.905 C 1.52 19.199 0.98 18.386 0.588 17.467 C 0.196 16.549 0 15.562 0 14.508 C 0 13.454 0.196 12.467 0.588 11.548 C 0.98 10.629 1.52 9.822 2.208 9.125 C 2.906 8.419 3.709 7.868 4.618 7.472 C 5.526 7.075 6.501 6.877 7.543 6.877 C 8.461 6.877 9.269 7.08 9.967 7.486 C 10.665 7.883 11.243 8.41 11.702 9.067 Z M 7.586 18.73 C 8.332 18.73 8.992 18.541 9.565 18.164 C 10.139 17.787 10.588 17.279 10.913 16.641 C 11.238 15.993 11.401 15.282 11.401 14.508 C 11.401 13.724 11.238 13.014 10.913 12.375 C 10.588 11.727 10.134 11.215 9.551 10.837 C 8.977 10.46 8.322 10.272 7.586 10.272 C 6.85 10.272 6.176 10.465 5.564 10.852 C 4.962 11.229 4.479 11.737 4.116 12.375 C 3.762 13.014 3.585 13.724 3.585 14.508 C 3.585 15.291 3.767 16.002 4.13 16.641 C 4.493 17.279 4.976 17.787 5.579 18.164 C 6.19 18.541 6.86 18.73 7.586 18.73 Z" fill="white"></path>
    <path d="M 61.393 19.959 C 61.393 18.957 62.196 18.145 63.186 18.145 C 64.176 18.145 64.978 18.957 64.978 19.959 C 64.978 20.96 64.176 21.772 63.186 21.772 C 62.196 21.772 61.393 20.96 61.393 19.959 Z" fill="white"></path>
    <path d="M 60.937 18.145 C 61.345 18.145 61.74 18.285 62.058 18.543 C 61.648 18.875 61.386 19.386 61.386 19.959 C 61.386 20.531 61.648 21.042 62.058 21.374 C 61.74 21.632 61.345 21.773 60.937 21.772 C 59.947 21.772 59.145 20.96 59.145 19.959 C 59.145 18.957 59.947 18.145 60.937 18.145 Z" fill="white" opacity="0.9"></path>
    <path d="M 58.714 18.145 C 59.121 18.145 59.517 18.285 59.835 18.543 C 59.424 18.875 59.162 19.386 59.162 19.959 C 59.162 20.531 59.424 21.042 59.835 21.374 C 59.517 21.632 59.121 21.773 58.714 21.772 C 57.724 21.772 56.921 20.96 56.921 19.959 C 56.921 18.957 57.724 18.145 58.714 18.145 Z" fill="white" opacity="0.8"></path>
    <path d="M 56.466 18.145 C 56.873 18.145 57.269 18.285 57.586 18.543 C 57.176 18.875 56.914 19.386 56.914 19.959 C 56.914 20.531 57.176 21.042 57.586 21.374 C 57.269 21.632 56.873 21.773 56.466 21.772 C 55.476 21.772 54.673 20.96 54.673 19.959 C 54.673 18.957 55.476 18.145 56.466 18.145 Z" fill="white" opacity="0.7"></path>
    <path d="M 54.218 18.145 C 54.625 18.145 55.02 18.285 55.338 18.543 C 54.929 18.875 54.666 19.386 54.666 19.959 C 54.666 20.531 54.928 21.042 55.338 21.374 C 55.02 21.632 54.625 21.773 54.218 21.772 C 53.228 21.772 52.425 20.96 52.425 19.959 C 52.425 18.957 53.228 18.145 54.218 18.145 Z" fill="white" opacity="0.6"></path>
    <path d="M 51.994 18.145 C 52.402 18.145 52.797 18.285 53.115 18.543 C 52.705 18.875 52.442 19.386 52.442 19.959 C 52.442 20.531 52.705 21.042 53.115 21.374 C 52.797 21.632 52.402 21.773 51.994 21.772 C 51.004 21.772 50.201 20.96 50.201 19.959 C 50.201 18.957 51.004 18.145 51.994 18.145 Z" fill="white" opacity="0.5"></path>
    <path d="M 49.746 18.145 C 50.17 18.145 50.559 18.294 50.866 18.543 C 50.457 18.875 50.194 19.386 50.194 19.959 C 50.194 20.531 50.457 21.042 50.866 21.374 C 50.549 21.632 50.153 21.773 49.746 21.772 C 48.756 21.772 47.953 20.96 47.953 19.959 C 47.953 18.957 48.756 18.145 49.746 18.145 Z" fill="white" opacity="0.4"></path>
    <path d="M 47.498 18.145 C 47.922 18.145 48.311 18.294 48.618 18.543 C 48.208 18.875 47.946 19.386 47.946 19.959 C 47.946 20.531 48.208 21.042 48.618 21.374 C 48.3 21.632 47.905 21.773 47.498 21.772 C 46.508 21.772 45.705 20.96 45.705 19.959 C 45.705 18.957 46.508 18.145 47.498 18.145 Z" fill="white" opacity="0.3"></path>
    <path d="M 45.274 18.145 C 45.682 18.145 46.077 18.285 46.395 18.543 C 45.985 18.875 45.722 19.386 45.722 19.959 C 45.722 20.531 45.985 21.042 46.394 21.374 C 46.077 21.632 45.682 21.773 45.274 21.772 C 44.284 21.772 43.482 20.96 43.482 19.959 C 43.482 18.957 44.284 18.145 45.274 18.145 Z" fill="white" opacity="0.2"></path>
  </g>
</svg>